<svg width="640" height="512" viewBox="0 0 640 512" fill="none" xmlns="http://www.w3.org/2000/svg">
<rect width="640" height="512" fill="white"/>
<path d="M592 86H48C21.5 86 0 107.5 0 134V358C0 384.5 21.5 406 48 406H592C618.5 406 640 384.5 640 358V134C640 107.5 618.5 86 592 86ZM608 358C608 366.8 600.8 374 592 374H48C39.2 374 32 366.8 32 358V134C32 125.2 39.2 118 48 118H592C600.8 118 608 125.2 608 134V358Z" fill="#505659"/>
<path d="M624.469 383.657L624.405 383.711L624.461 383.643L503.692 241.235L503.686 241.227L503.68 241.22C498.379 234.995 489.019 234.202 482.763 239.569C480.001 241.924 478.183 245.218 477.709 248.863L452.153 434.334C452.151 434.348 452.149 434.362 452.147 434.375C450.98 442.609 456.766 449.949 464.649 451.139C468.638 451.749 472.671 450.669 475.806 448.266C475.806 448.266 475.807 448.265 475.808 448.265L513.375 419.465L527.91 469.309L527.92 469.346L527.931 469.382C530.259 477.145 538.366 481.671 546.233 479.43L546.284 479.415L546.335 479.4L572.872 471.532L572.904 471.522L572.937 471.512C580.748 469.138 585.119 460.978 582.937 453.215L582.923 453.167L582.909 453.119L568.745 404.609L611.962 408.137L612.004 408.141L612.046 408.144C620.242 408.744 627.224 402.606 627.946 394.6L627.954 394.518L627.96 394.436C628.248 390.517 626.977 386.626 624.469 383.657Z" fill="#505659" stroke="white" stroke-width="20"/>
<path d="M320 234.087C342.778 234.087 361 252.348 361 275.174C361 293.435 348.852 310.174 332.148 314.739V320.826C332.148 326.913 326.074 333 320 333C313.926 333 307.852 326.913 307.852 320.826V314.739C291.148 310.174 279 293.435 279 275.174C279 269.087 285.074 263 291.148 263C297.222 263 303.296 267.565 303.296 275.174C303.296 284.304 310.889 291.913 320 291.913C329.111 291.913 336.704 284.304 336.704 275.174C336.704 266.043 329.111 256.913 320 256.913C297.222 256.913 279 238.652 279 215.826C279 197.565 291.148 180.826 307.852 176.261V170.174C307.852 164.087 313.926 158 320 158C326.074 158 332.148 162.565 332.148 170.174V176.261C348.852 180.826 361 197.565 361 215.826C361 221.913 354.926 228 348.852 228C342.778 228 336.704 223.435 336.704 215.826C336.704 206.696 329.111 197.565 320 197.565C310.889 197.565 303.296 205.174 303.296 215.826C303.296 226.478 310.889 234.087 320 234.087Z" fill="#505659"/>
</svg>
